<?xml version="1.0" encoding="utf-8"?>
<!-- Generator: Adobe Illustrator 19.0.0, SVG Export Plug-In . SVG Version: 6.00 Build 0)  -->
<svg version="1.1" id="Capa_1" xmlns="http://www.w3.org/2000/svg" xmlns:xlink="http://www.w3.org/1999/xlink" x="0px" y="0px"
	 viewBox="-37 128.9 536.1 536.1" style="enable-background:new -37 128.9 536.1 536.1;" xml:space="preserve">
<style type="text/css">
	.st0{fill:#FFFFFF;}
</style>
<g>
	<path class="st0" d="M110.1,220c0-37.9,30.8-68.7,68.7-68.7c37.9,0,68.7,30.8,68.7,68.7s-30.8,68.7-68.7,68.7
		C140.9,288.7,110.1,258,110.1,220z M211.9,335.5c0.7-15,5.8-28.8,14.1-40.3c-5.8-1.2-11.8-1.9-18-1.9h-58.3
		c-6.1,0-12.2,0.6-17.9,1.8c8.8,12.2,14.1,27.2,14.2,43.3c10.7-5.9,23-9.3,36.1-9.3C192.6,329.3,202.7,331.6,211.9,335.5z
		 M223.5,341.7c20,12.5,34,33.7,36.5,58.3c8.1,3.8,17.2,6,26.7,6c35,0,63.3-28.3,63.3-63.3c0-35-28.3-63.3-63.3-63.3
		C252.1,279.3,224,307.2,223.5,341.7z M182,471.3c35,0,63.3-28.4,63.3-63.3c0-35-28.3-63.3-63.3-63.3c-35,0-63.3,28.3-63.3,63.3
		C118.7,443,147.1,471.3,182,471.3z M208.9,475.6h-53.7c-44.7,0-81.1,36.4-81.1,81.1v65.7l0.2,1l4.5,1.4
		c42.7,13.3,79.7,17.8,110.2,17.8c59.6,0,94.1-17,96.2-18.1l4.2-2.1h0.4v-65.7C289.9,512,253.6,475.6,208.9,475.6z M313.6,410.3
		h-53.3c-0.6,21.3-9.7,40.5-24.1,54.4c39.7,11.8,68.8,48.7,68.8,92.2v20.2c52.6-1.9,83-16.8,85-17.9l4.2-2.2h0.4v-65.7
		C394.7,446.7,358.3,410.3,313.6,410.3z M327.9,278c20,12.5,34,33.7,36.5,58.3c8.1,3.8,17.2,6,26.7,6c35,0,63.3-28.3,63.3-63.3
		c0-35-28.3-63.3-63.3-63.3C356.5,215.6,328.4,243.5,327.9,278z M418,346.6h-53.3c-0.6,21.3-9.7,40.5-24.1,54.3
		c39.7,11.8,68.8,48.7,68.8,92.2v20.2c52.6-1.9,83-16.8,85-17.9l4.2-2.1h0.5v-65.7C499.1,383,462.7,346.6,418,346.6z M70.9,406
		c12.4,0,23.9-3.6,33.7-9.8c3.1-20.2,14-37.9,29.5-50c0.1-1.2,0.2-2.4,0.2-3.6c0-35-28.4-63.3-63.3-63.3c-35,0-63.3,28.3-63.3,63.3
		C7.6,377.6,36,406,70.9,406z M127.8,464.6c-14.3-13.7-23.4-32.8-24.1-54.1c-2-0.1-3.9-0.3-5.9-0.3H44.1
		c-44.7,0-81.1,36.4-81.1,81.1v65.7l0.2,1l4.5,1.4c34.2,10.7,64.8,15.6,91.3,17.2v-19.8C59,513.3,88.1,476.5,127.8,464.6z"/>
</g>
</svg>
