<?xml version="1.0" encoding="utf-8"?>
<!-- Generator: Adobe Illustrator 19.0.0, SVG Export Plug-In . SVG Version: 6.00 Build 0)  -->
<svg version="1.1" id="Capa_1" xmlns="http://www.w3.org/2000/svg" xmlns:xlink="http://www.w3.org/1999/xlink" x="0px" y="0px"
	 viewBox="-146 238 318 318" style="enable-background:new -146 238 318 318;" xml:space="preserve">
<style type="text/css">
	.st0{fill:#FFFFFF;}
</style>
<g>
	<path class="st0" d="M-66.9,260h-46.5c-7.3,0-13.2,5.9-13.2,13.2v46.5c0,7.3,5.9,13.2,13.2,13.2h46.5c7.3,0,13.2-5.9,13.2-13.2
		v-46.5C-53.7,265.9-59.7,260-66.9,260z"/>
	<path class="st0" d="M35.8,260h-46.5c-7.3,0-13.2,5.9-13.2,13.2v46.5c0,7.3,5.9,13.2,13.2,13.2h46.5c7.3,0,13.2-5.9,13.2-13.2
		v-46.5C49,265.9,43.1,260,35.8,260z"/>
	<path class="st0" d="M139.5,260H92.9c-7.3,0-13.2,5.9-13.2,13.2v46.5c0,7.3,5.9,13.2,13.2,13.2h46.5c7.3,0,13.2-5.9,13.2-13.2
		v-46.5C152.6,265.9,146.7,260,139.5,260z"/>
	<path class="st0" d="M-66.9,360.1h-46.5c-7.3,0-13.2,5.9-13.2,13.2v46.5c0,7.3,5.9,13.2,13.2,13.2h46.5c7.3,0,13.2-5.9,13.2-13.2
		v-46.5C-53.7,366-59.7,360.1-66.9,360.1z"/>
	<path class="st0" d="M35.8,360.1h-46.5c-7.3,0-13.2,5.9-13.2,13.2v46.5c0,7.3,5.9,13.2,13.2,13.2h46.5c7.3,0,13.2-5.9,13.2-13.2
		v-46.5C49,366,43.1,360.1,35.8,360.1z"/>
	<path class="st0" d="M139.5,360.1H92.9c-7.3,0-13.2,5.9-13.2,13.2v46.5c0,7.3,5.9,13.2,13.2,13.2h46.5c7.3,0,13.2-5.9,13.2-13.2
		v-46.5C152.6,366,146.7,360.1,139.5,360.1z"/>
	<path class="st0" d="M-66.9,461.1h-46.5c-7.3,0-13.2,5.9-13.2,13.2v46.5c0,7.3,5.9,13.2,13.2,13.2h46.5c7.3,0,13.2-5.9,13.2-13.2
		v-46.5C-53.7,467-59.7,461.1-66.9,461.1z"/>
	<path class="st0" d="M35.8,461.1h-46.5c-7.3,0-13.2,5.9-13.2,13.2v46.5c0,7.3,5.9,13.2,13.2,13.2h46.5c7.3,0,13.2-5.9,13.2-13.2
		v-46.5C49,467,43.1,461.1,35.8,461.1z"/>
	<path class="st0" d="M139.5,461.1H92.9c-7.3,0-13.2,5.9-13.2,13.2v46.5c0,7.3,5.9,13.2,13.2,13.2h46.5c7.3,0,13.2-5.9,13.2-13.2
		v-46.5C152.6,467,146.7,461.1,139.5,461.1z"/>
</g>
</svg>
