<?xml version="1.0" encoding="utf-8"?>
<!-- Generator: Adobe Illustrator 19.0.0, SVG Export Plug-In . SVG Version: 6.00 Build 0)  -->
<svg version="1.1" id="Capa_1" xmlns="http://www.w3.org/2000/svg" xmlns:xlink="http://www.w3.org/1999/xlink" x="0px" y="0px"
	 viewBox="-243 335 124 124" style="enable-background:new -243 335 124 124;" xml:space="preserve">
<style type="text/css">
	.st0{fill:#6DC9EA;}
</style>
<g>
	<path class="st0" d="M-131,341h-100c-6.6,0-12,5.4-12,12s5.4,12,12,12h100c6.6,0,12-5.4,12-12S-124.4,341-131,341z"/>
	<path class="st0" d="M-131,385h-100c-6.6,0-12,5.4-12,12s5.4,12,12,12h100c6.6,0,12-5.4,12-12S-124.4,385-131,385z"/>
	<path class="st0" d="M-131,429h-100c-6.6,0-12,5.4-12,12s5.4,12,12,12h100c6.6,0,12-5.4,12-12S-124.4,429-131,429z"/>
</g>
</svg>
