<?xml version="1.0" encoding="utf-8"?>
<!-- Generator: Adobe Illustrator 19.0.0, SVG Export Plug-In . SVG Version: 6.00 Build 0)  -->
<svg version="1.1" id="Capa_1" xmlns="http://www.w3.org/2000/svg" xmlns:xlink="http://www.w3.org/1999/xlink" x="0px" y="0px"
	 viewBox="-114 205.9 382.1 382.1" style="enable-background:new -114 205.9 382.1 382.1;" xml:space="preserve">
<style type="text/css">
	.st0{fill:#FFFFFF;}
</style>
<path class="st0" d="M222.8,251.8H-68.6c-25,0-45.4,19.5-45.4,43.6v203.1c0,24,20.3,43.6,45.4,43.6h291.4c25,0,45.4-19.5,45.4-43.6
	V295.4C268.1,271.4,247.8,251.8,222.8,251.8z M222.8,503.6H-68.6c-3.7,0-6.9-2.4-6.9-5.1V322.2L56.3,433.5c2.7,2.3,6.1,3.5,9.7,3.5
	l22.3,0c3.5,0,7-1.3,9.7-3.5l131.8-111.3v176.3C229.7,501.2,226.4,503.6,222.8,503.6z M77.1,398.9L-51.1,290.3h256.4L77.1,398.9z"/>
</svg>
