<?xml version="1.0" encoding="utf-8"?>
<!-- Generator: Adobe Illustrator 19.0.0, SVG Export Plug-In . SVG Version: 6.00 Build 0)  -->
<svg version="1.1" id="Layer_1" xmlns="http://www.w3.org/2000/svg" xmlns:xlink="http://www.w3.org/1999/xlink" x="0px" y="0px"
	 viewBox="-49 141 512 512" style="enable-background:new -49 141 512 512;" xml:space="preserve">
<style type="text/css">
	.st0{fill:#FFFFFF;}
</style>
<g>
	<g>
		<path class="st0" d="M431.6,482.4c-11.3,0-20.4,9.1-20.4,20.4v98.4H2.8v-98.4c0-11.3-9.1-20.4-20.4-20.4S-38,491.5-38,502.8v118.8
			c0,11.3,9.1,20.4,20.4,20.4h449.2c11.3,0,20.4-9.1,20.4-20.4V502.8C452,491.5,442.9,482.4,431.6,482.4z"/>
		<path class="st0" d="M221.9,161.6c-11.5-11.6-25.6-5.2-29.9,0L74.7,287.8c-7.7,8.3-7.2,21.2,1.1,28.9c8.3,7.7,21.2,7.2,28.8-1.1
			l81.9-88.1v265.2c0,11.3,9.1,20.4,20.4,20.4c11.3,0,20.4-9.1,20.4-20.4V227.4l81.9,88.1c7.7,8.3,20.6,8.7,28.9,1.1
			c8.3-7.7,8.7-20.6,1.1-28.9L221.9,161.6L221.9,161.6z"/>
	</g>
</g>
</svg>
