<?xml version="1.0" encoding="utf-8"?>
<!-- Generator: Adobe Illustrator 19.0.0, SVG Export Plug-In . SVG Version: 6.00 Build 0)  -->
<svg version="1.1" id="Capa_1" xmlns="http://www.w3.org/2000/svg" xmlns:xlink="http://www.w3.org/1999/xlink" x="0px" y="0px"
	 viewBox="-281 373 48 48" style="enable-background:new -281 373 48 48;" xml:space="preserve">
<style type="text/css">
	.st0{fill:#FFFFFF;}
</style>
<g id="profile">
	<g>
		<path class="st0" d="M-257,373c-13.3,0-24,10.7-24,24s10.7,24,24,24s24-10.7,24-24S-243.7,373-257,373z M-257,419
			c-4.5,0-8.7-1.4-12.2-3.7h0l2-9.9c0.3-2.4,2.3-4.2,4.6-4.3c1.6,1.2,3.5,2,5.5,2c2.1,0,4-0.8,5.6-2c2.4,0.1,4.5,1.9,4.8,4.4l2,9.7
			C-248.2,417.6-252.4,419-257,419z M-265,392c0-4.3,3.7-8,8-8s8,3.7,8,8c0,4.5-3.9,9-8,9S-265,396.5-265,392z M-242.9,413.9
			l-1.8-8.7c-0.4-2.8-2.4-5.1-5-5.8c1.6-1.9,2.7-4.8,2.7-7.4c0-5.4-4.6-10-10-10s-10,4.6-10,10c0,2.5,1.1,5.5,2.7,7.4
			c-2.5,0.8-4.5,3-4.9,5.7l-1.8,8.9c-4.9-4-8-10.2-8-17c0-12.1,9.9-22,22-22c12.1,0,22,9.9,22,22
			C-235,403.8-238.1,409.8-242.9,413.9z"/>
	</g>
</g>
</svg>
